<?xml version="1.0" standalone="no"?>
<!DOCTYPE svg PUBLIC "-//W3C//DTD SVG 20010904//EN"
 "http://www.w3.org/TR/2001/REC-SVG-20010904/DTD/svg10.dtd">
<svg version="1.0" xmlns="http://www.w3.org/2000/svg"
 width="493.000000pt" height="141.000000pt" viewBox="0 0 493.000000 141.000000"
 preserveAspectRatio="xMidYMid meet">

<g transform="translate(0.000000,141.000000) scale(0.100000,-0.100000)"
fill="#000000" stroke="none">
<path d="M4318 1001 c-67 -13 -75 -22 -190 -193 -28 -42 -50 -62 -82 -77 -47
-20 -71 -51 -63 -81 5 -21 -11 -49 -56 -97 -36 -38 -76 -43 -95 -13 -14 22 -7
42 30 89 17 22 17 26 3 40 -13 13 -20 13 -52 2 -62 -20 -113 -44 -113 -51 0
-11 -110 -83 -117 -76 -3 3 -2 26 4 51 6 24 8 47 5 50 -9 8 -86 -7 -110 -22
-13 -8 -27 -25 -32 -39 -18 -47 -160 -94 -160 -53 0 17 27 63 49 83 27 25 27
46 -1 46 -47 0 -95 -21 -138 -61 -62 -56 -95 -72 -136 -64 -37 7 -44 28 -19
54 23 24 65 90 65 103 0 7 -20 9 -57 6 -53 -5 -60 -8 -99 -52 -24 -26 -53 -66
-66 -89 -22 -40 -26 -42 -63 -39 -22 2 -44 7 -48 11 -4 4 -3 28 4 52 6 24 13
59 16 77 6 39 -6 41 -87 13 -72 -24 -120 -33 -120 -21 0 5 14 32 30 60 17 28
30 55 30 60 0 5 25 39 55 75 31 36 58 79 62 96 l6 32 -48 -5 c-58 -7 -89 -29
-137 -99 -99 -143 -268 -309 -314 -309 -33 0 -32 38 1 78 31 38 32 52 1 52
-39 0 -109 -35 -144 -73 -57 -62 -193 -90 -200 -41 -3 24 45 70 84 80 13 3 24
12 24 19 0 7 7 15 15 19 8 3 15 15 15 26 0 17 -4 19 -27 14 -43 -10 -104 -43
-150 -81 -66 -53 -123 -71 -286 -89 -49 -5 -57 -4 -57 11 0 9 9 19 19 22 11 3
21 13 24 24 3 13 14 19 31 19 48 0 70 79 36 130 -17 28 -97 18 -173 -20 -102
-52 -130 -78 -131 -125 -1 -35 -4 -40 -26 -43 -14 -2 -47 -10 -75 -19 -45 -15
-182 -19 -195 -7 -2 3 7 15 22 27 40 35 71 104 63 144 -14 74 -96 134 -249
183 -66 21 -69 21 -115 5 -25 -10 -49 -20 -53 -24 -4 -3 -2 -25 4 -49 8 -32 7
-46 -2 -57 -16 -19 -47 -80 -70 -135 -26 -64 -81 -153 -118 -190 -18 -17 -32
-35 -32 -40 0 -25 89 -28 195 -6 141 30 186 37 246 40 38 2 76 9 84 16 9 7 26
9 45 5 18 -4 72 2 136 16 l105 22 42 -24 c36 -20 54 -23 132 -21 54 1 126 11
179 24 86 22 90 22 100 4 29 -48 26 -47 111 -36 44 6 104 20 134 31 l55 20 24
-30 c21 -28 27 -30 65 -25 57 8 133 40 189 79 49 36 58 35 58 -1 0 -16 7 -24
28 -29 25 -5 105 10 155 30 16 7 18 3 15 -31 -3 -37 -1 -40 42 -62 54 -27 94
-28 164 -3 33 11 59 15 67 10 20 -12 132 -11 183 2 40 10 45 9 69 -15 34 -34
76 -34 170 0 109 39 107 39 107 16 0 -11 6 -22 14 -25 20 -8 92 16 176 58 57
29 75 34 81 23 5 -7 9 -18 9 -24 0 -22 47 -54 78 -54 76 0 266 94 277 137 9
39 28 27 21 -14 -19 -126 -19 -147 3 -185 26 -44 68 -59 89 -31 27 35 44 87
46 147 4 86 34 184 61 202 12 8 40 16 61 19 158 17 234 38 234 65 0 15 -32 19
-115 15 -108 -6 -135 0 -135 31 0 13 16 56 35 94 19 38 35 76 35 85 0 16 -5
17 -62 6z m-3372 -258 c60 -45 64 -50 64 -90 0 -45 -33 -77 -110 -106 -71 -27
-214 -45 -225 -27 -3 5 1 10 9 10 9 0 16 5 16 11 0 6 11 25 24 42 13 18 27 42
31 55 3 12 10 22 15 22 4 0 11 12 14 26 4 14 19 41 34 60 36 45 66 44 128 -3z
m580 -84 c9 -15 -11 -33 -30 -26 -9 4 -13 13 -10 22 7 17 30 20 40 4z"/>
</g>
</svg>
